HIERARCHY
ROOT Pelvis
{
	OFFSET 0.000000 0.941512 0.000000
	CHANNELS 6 Xposition Yposition Zposition Zrotation Yrotation Xrotation 
	JOINT Pelvis_L_Hip
	{
		OFFSET 0.000000 0.000000 0.000000
		CHANNELS 3 Zrotation Yrotation Xrotation
		JOINT L_Hip
		{
			OFFSET 0.062321 -0.080322 -0.016990
			CHANNELS 3 Zrotation Yrotation Xrotation
			JOINT L_Knee
			{
				OFFSET 0.093051 -0.381305 -0.029784
				CHANNELS 3 Zrotation Yrotation Xrotation
				JOINT L_Ankle
				{
					OFFSET -0.010371 -0.431000 -0.033614
					CHANNELS 3 Zrotation Yrotation Xrotation
					End Site #name: L_Foot
					{
						OFFSET 0.069299 -0.038670 0.119418
					}
				}
			}
		}
	}
	JOINT Pelvis_R_Hip
	{
		OFFSET 0.000000 0.000000 0.000000
		CHANNELS 3 Zrotation Yrotation Xrotation
		JOINT R_Hip
		{
			OFFSET -0.055334 -0.094904 -0.002373
			CHANNELS 3 Zrotation Yrotation Xrotation
			JOINT R_Knee
			{
				OFFSET -0.064207 -0.384370 -0.019592
				CHANNELS 3 Zrotation Yrotation Xrotation
				JOINT R_Ankle
				{
					OFFSET 0.025418 -0.419734 -0.065953
					CHANNELS 3 Zrotation Yrotation Xrotation
					End Site #name: R_Foot
					{
						OFFSET -0.057233 -0.039888 0.132134
					}
				}
			}
		}
	}
	JOINT Pelvis_Spine1
	{
		OFFSET 0.000000 0.000000 0.000000
		CHANNELS 3 Zrotation Yrotation Xrotation
		JOINT Spine1
		{
			OFFSET -0.005562 0.124093 -0.043360
			CHANNELS 3 Zrotation Yrotation Xrotation
			JOINT Spine2
			{
				OFFSET 0.012244 0.139499 0.029894
				CHANNELS 3 Zrotation Yrotation Xrotation
				JOINT Spine3
				{
					OFFSET -0.002556 0.056561 0.009225
					CHANNELS 3 Zrotation Yrotation Xrotation
					JOINT Spine3_Neck
					{
						OFFSET 0.000000 0.000000 0.000000
						CHANNELS 3 Zrotation Yrotation Xrotation
						JOINT Neck
						{
							OFFSET -0.005205 0.217920 -0.024551
							CHANNELS 3 Zrotation Yrotation Xrotation
							End Site #name: Head
							{
								OFFSET 0.002365 0.091850 0.046637
							}
						}
					}
					JOINT Spine3_L_Collar
					{
						OFFSET 0.000000 0.000000 0.000000
						CHANNELS 3 Zrotation Yrotation Xrotation
						JOINT L_Collar
						{
							OFFSET 0.072225 0.116603 -0.009480
							CHANNELS 3 Zrotation Yrotation Xrotation
							JOINT L_Shoulder
							{
								OFFSET 0.115937 -0.058643 -0.021018
								CHANNELS 3 Zrotation Yrotation Xrotation
								JOINT L_Elbow
								{
									OFFSET 0.021994 -0.254722 -0.024492
									CHANNELS 3 Zrotation Yrotation Xrotation
									End Site #name: L_Wrist
									{
										OFFSET 0.048810 -0.240214 0.103329
									}
								}
							}
						}
					}
					JOINT Spine3_R_Collar
					{
						OFFSET 0.000000 0.000000 0.000000
						CHANNELS 3 Zrotation Yrotation Xrotation
						JOINT R_Collar
						{
							OFFSET -0.073372 0.120704 -0.024611
							CHANNELS 3 Zrotation Yrotation Xrotation
							JOINT R_Shoulder
							{
								OFFSET -0.108089 -0.054969 -0.020504
								CHANNELS 3 Zrotation Yrotation Xrotation
								JOINT R_Elbow
								{
									OFFSET -0.033684 -0.260739 0.009889
									CHANNELS 3 Zrotation Yrotation Xrotation
									End Site #name: R_Wrist
									{
										OFFSET -0.067980 -0.232763 0.118463
									}
								}
							}
						}
					}
				}
			}
		}
	}
}
MOTION
Frames: 14
Frame Time: 0.041667
0.000000 0.951955 0.000000 -3.390462 -2.786970 2.930433 0.000000 0.000000 0.000000 -1.459920 -0.559782 -2.641841 5.435355 -0.405468 -0.450035 -4.042761 -9.248716 1.900021 0.000000 0.000000 0.000000 3.866915 -0.001326 -1.116503 -3.015675 0.137588 -3.766100 3.360823 6.649788 2.773794 0.000000 0.000000 0.000000 6.067306 -0.813453 -3.738943 -1.907254 0.049443 -4.304764 1.857262 2.196322 5.087803 0.000000 0.000000 0.000000 -4.303798 2.373029 6.091485 0.000000 0.000000 0.000000 26.058538 -0.808142 4.732682 -20.714220 1.998870 -0.764040 -0.897527 -1.527260 -5.276913 0.000000 0.000000 0.000000 -31.622556 6.496175 1.208460 23.326210 -2.833405 10.352497 -5.191358 1.346141 -15.849035 
-0.000096 0.951860 0.000039 -3.416977 -2.773822 2.981236 0.000000 0.000000 0.000000 -1.414409 -0.577506 -2.702463 5.425738 -0.405944 -0.433807 -4.047899 -9.258222 1.903633 0.000000 0.000000 0.000000 3.897767 0.003916 -1.151587 -3.015877 0.136694 -3.777079 3.362266 6.643016 2.781351 0.000000 0.000000 0.000000 6.161357 -0.813862 -3.862920 -2.018388 0.061246 -4.338016 1.886605 2.205641 5.213442 0.000000 0.000000 0.000000 -4.279675 2.356458 5.958025 0.000000 0.000000 0.000000 26.153683 -0.811775 4.754027 -20.898232 2.018684 -0.775723 -0.908570 -1.547956 -5.341630 0.000000 0.000000 0.000000 -31.595042 6.500840 1.194958 23.359741 -2.843832 10.364220 -5.226042 1.336905 -15.903528 
-0.000204 0.951818 0.000108 -3.427311 -2.777850 2.993394 0.000000 0.000000 0.000000 -1.398981 -0.579567 -2.707031 5.427134 -0.406119 -0.434349 -4.041986 -9.253972 1.896683 0.000000 0.000000 0.000000 3.898292 0.002579 -1.145408 -2.994747 0.132784 -3.791733 3.368184 6.663729 2.780009 0.000000 0.000000 0.000000 6.182415 -0.810570 -3.913488 -2.020076 0.062563 -4.319523 1.895016 2.228384 5.222805 0.000000 0.000000 0.000000 -4.271137 2.350341 5.928626 0.000000 0.000000 0.000000 26.095661 -0.757013 4.788346 -20.956472 2.021018 -0.790482 -0.922877 -1.556733 -5.346474 0.000000 0.000000 0.000000 -31.577014 6.512459 1.177738 23.385825 -2.852325 10.381922 -5.229817 1.344756 -15.933212 
-0.000323 0.951765 0.000172 -3.441773 -2.805940 3.007336 0.000000 0.000000 0.000000 -1.383213 -0.581042 -2.708972 5.432664 -0.406957 -0.429289 -4.027547 -9.230234 1.885788 0.000000 0.000000 0.000000 3.903449 0.001754 -1.143421 -2.975480 0.128781 -3.810647 3.382309 6.700948 2.784382 0.000000 0.000000 0.000000 6.207057 -0.808214 -3.963798 -2.024023 0.064322 -4.298156 1.910908 2.263409 5.228008 0.000000 0.000000 0.000000 -4.277860 2.353713 5.915755 0.000000 0.000000 0.000000 26.038373 -0.698372 4.825527 -20.986156 2.017659 -0.815654 -0.915902 -1.552511 -5.345851 0.000000 0.000000 0.000000 -31.569436 6.552042 1.137133 23.413843 -2.854560 10.382870 -5.235100 1.331023 -15.902143 
-0.000465 0.951714 0.000330 -3.441501 -2.827338 2.990736 0.000000 0.000000 0.000000 -1.384248 -0.572758 -2.675949 5.439548 -0.407798 -0.427057 -4.017065 -9.222952 1.873285 0.000000 0.000000 0.000000 3.902712 -0.007127 -1.099096 -2.969129 0.125673 -3.836750 3.388190 6.730912 2.776819 0.000000 0.000000 0.000000 6.201272 -0.800172 -4.012142 -2.017125 0.066593 -4.247697 1.924875 2.284970 5.236415 0.000000 0.000000 0.000000 -4.273666 2.350766 5.893097 0.000000 0.000000 0.000000 26.010871 -0.659558 4.851836 -21.007370 2.017401 -0.825352 -0.923914 -1.562851 -5.376479 0.000000 0.000000 0.000000 -31.559815 6.579687 1.108503 23.428329 -2.848823 10.363291 -5.222391 1.331852 -15.868030 
-0.000531 0.951694 0.000490 -3.439305 -2.840456 2.982338 0.000000 0.000000 0.000000 -1.393097 -0.567816 -2.657901 5.447355 -0.409424 -0.412331 -4.004593 -9.221072 1.854243 0.000000 0.000000 0.000000 3.901367 -0.012019 -1.074902 -2.970013 0.124945 -3.845826 3.387931 6.745421 2.767088 0.000000 0.000000 0.000000 6.204855 -0.795121 -4.052336 -2.014837 0.067336 -4.230339 1.937072 2.295105 5.246327 0.000000 0.000000 0.000000 -4.271741 2.349382 5.881886 0.000000 0.000000 0.000000 26.007641 -0.631262 4.873748 -21.035792 2.026161 -0.805041 -0.935796 -1.575532 -5.408111 0.000000 0.000000 0.000000 -31.559700 6.585456 1.101950 23.441796 -2.846681 10.352894 -5.230437 1.323468 -15.866761 
-0.000547 0.951655 0.000685 -3.435737 -2.835276 2.971544 0.000000 0.000000 0.000000 -1.392897 -0.562010 -2.635562 5.442776 -0.409225 -0.410106 -3.999376 -9.231344 1.840926 0.000000 0.000000 0.000000 3.900127 -0.017733 -1.045942 -2.972575 0.125044 -3.848834 3.377893 6.742447 2.749360 0.000000 0.000000 0.000000 6.209518 -0.790155 -4.091970 -2.010203 0.067582 -4.216502 1.939717 2.292552 5.249949 0.000000 0.000000 0.000000 -4.262675 2.343985 5.877109 0.000000 0.000000 0.000000 26.006725 -0.629207 4.875817 -21.054362 2.035429 -0.778165 -0.940177 -1.576186 -5.398599 0.000000 0.000000 0.000000 -31.560635 6.576479 1.111410 23.447396 -2.846247 10.350827 -5.237237 1.323489 -15.877855 
-0.000523 0.951607 0.000869 -3.437526 -2.831044 2.966586 0.000000 0.000000 0.000000 -1.394167 -0.556351 -2.613540 5.444386 -0.408724 -0.419062 -3.999351 -9.241311 1.836002 0.000000 0.000000 0.000000 3.901820 -0.020882 -1.030285 -2.974382 0.126401 -3.835504 3.365652 6.736359 2.728889 0.000000 0.000000 0.000000 6.229395 -0.787031 -4.138615 -2.007236 0.068538 -4.194741 1.935235 2.288251 5.246767 0.000000 0.000000 0.000000 -4.256055 2.339876 5.864928 0.000000 0.000000 0.000000 25.992355 -0.631140 4.871283 -21.048866 2.039625 -0.761279 -0.940981 -1.571956 -5.374783 0.000000 0.000000 0.000000 -31.563868 6.571371 1.116852 23.437263 -2.846680 10.354713 -5.244784 1.316647 -15.859794 
-0.000472 0.951556 0.001038 -3.442858 -2.831932 2.964819 0.000000 0.000000 0.000000 -1.393180 -0.552623 -2.598694 5.447597 -0.408796 -0.420397 -3.999483 -9.248227 1.832562 0.000000 0.000000 0.000000 3.905543 -0.022920 -1.021268 -2.976812 0.127707 -3.824139 3.358587 6.738382 2.713864 0.000000 0.000000 0.000000 6.253964 -0.786138 -4.176123 -2.008183 0.069460 -4.180983 1.935845 2.289155 5.248068 0.000000 0.000000 0.000000 -4.252391 2.337098 5.839933 0.000000 0.000000 0.000000 25.981441 -0.617943 4.879162 -21.047462 2.039682 -0.761486 -0.915830 -1.557874 -5.371330 0.000000 0.000000 0.000000 -31.560693 6.562622 1.124954 23.406523 -2.847277 10.362566 -5.281684 1.275865 -15.821999 
-0.000409 0.951500 0.001195 -3.448758 -2.835282 2.967721 0.000000 0.000000 0.000000 -1.383578 -0.552432 -2.596128 5.437295 -0.408396 -0.416858 -3.997645 -9.247598 1.830441 0.000000 0.000000 0.000000 3.908381 -0.023932 -1.017090 -2.979393 0.128847 -3.814122 3.352383 6.744868 2.697428 0.000000 0.000000 0.000000 6.279663 -0.785832 -4.210361 -2.011228 0.070689 -4.166312 1.936375 2.289698 5.253472 0.000000 0.000000 0.000000 -4.252288 2.336333 5.805890 0.000000 0.000000 0.000000 25.965492 -0.603740 4.886641 -21.077193 2.036406 -0.783399 -0.862632 -1.531742 -5.371724 0.000000 0.000000 0.000000 -31.555167 6.553346 1.132817 23.385328 -2.845954 10.361954 -5.317700 1.238786 -15.779781 
-0.000369 0.951442 0.001400 -3.443024 -2.830563 2.953436 0.000000 0.000000 0.000000 -1.389022 -0.545622 -2.570411 5.431307 -0.408062 -0.413996 -3.992435 -9.260233 1.815574 0.000000 0.000000 0.000000 3.900742 -0.031420 -0.977655 -2.982553 0.127592 -3.833333 3.349483 6.749718 2.688894 0.000000 0.000000 0.000000 6.277218 -0.780575 -4.242965 -2.007397 0.071573 -4.143991 1.937392 2.280874 5.259818 0.000000 0.000000 0.000000 -4.239848 2.328927 5.791355 0.000000 0.000000 0.000000 25.954906 -0.600694 4.886015 -21.127052 2.029122 -0.829805 -0.776548 -1.478707 -5.322465 0.000000 0.000000 0.000000 -31.549670 6.537374 1.147618 23.377736 -2.842491 10.352920 -5.329087 1.220209 -15.738466 
-0.000331 0.951384 0.001578 -3.436869 -2.832852 2.947035 0.000000 0.000000 0.000000 -1.397297 -0.538762 -2.545494 5.430353 -0.407337 -0.422229 -3.986006 -9.265484 1.802606 0.000000 0.000000 0.000000 3.887208 -0.036004 -0.951622 -2.978005 0.125600 -3.850081 3.349399 6.759961 2.682461 0.000000 0.000000 0.000000 6.277648 -0.773987 -4.289317 -2.005556 0.072716 -4.121342 1.930269 2.264688 5.264357 0.000000 0.000000 0.000000 -4.230352 2.324263 5.806942 0.000000 0.000000 0.000000 25.952974 -0.598324 4.884385 -21.153917 2.027668 -0.845320 -0.767060 -1.469553 -5.296643 0.000000 0.000000 0.000000 -31.536563 6.515743 1.169563 23.390133 -2.836577 10.331849 -5.334104 1.214647 -15.724370 
-0.000299 0.951354 0.001732 -3.432986 -2.835760 2.939388 0.000000 0.000000 0.000000 -1.408547 -0.532187 -2.521645 5.432683 -0.407260 -0.426222 -3.981038 -9.270482 1.792272 0.000000 0.000000 0.000000 3.878017 -0.038353 -0.937637 -2.975114 0.125754 -3.844366 3.346594 6.771613 2.669852 0.000000 0.000000 0.000000 6.276972 -0.768510 -4.326140 -2.004071 0.073448 -4.106064 1.924782 2.242806 5.267815 0.000000 0.000000 0.000000 -4.220393 2.319201 5.812210 0.000000 0.000000 0.000000 25.939765 -0.593273 4.881172 -21.173384 2.027060 -0.854330 -0.745269 -1.451113 -5.261657 0.000000 0.000000 0.000000 -31.511693 6.475785 1.207078 23.406999 -2.828714 10.304455 -5.346151 1.206453 -15.726697 
-0.000266 0.951340 0.001863 -3.435172 -2.837427 2.928988 0.000000 0.000000 0.000000 -1.405921 -0.529371 -2.510177 5.427308 -0.408086 -0.409982 -3.972479 -9.270754 1.778774 0.000000 0.000000 0.000000 3.878173 -0.042277 -0.917781 -2.976621 0.126044 -3.843292 3.344158 6.779231 2.660401 0.000000 0.000000 0.000000 6.279368 -0.766675 -4.340589 -2.004817 0.073381 -4.108032 1.921594 2.222854 5.271476 0.000000 0.000000 0.000000 -4.203849 2.309909 5.801976 0.000000 0.000000 0.000000 25.934856 -0.595195 4.874626 -21.186663 2.035147 -0.831812 -0.712932 -1.432085 -5.254046 0.000000 0.000000 0.000000 -31.496746 6.446036 1.237415 23.427376 -2.832122 10.309088 -5.337478 1.218559 -15.746352 
